<?xml version="1.0" encoding="iso-8859-1"?>
<!-- Generator: Adobe Illustrator 19.0.0, SVG Export Plug-In . SVG Version: 6.00 Build 0)  -->
<svg version="1.1" id="Capa_1" xmlns="http://www.w3.org/2000/svg" xmlns:xlink="http://www.w3.org/1999/xlink" x="0px" y="0px"
	 viewBox="0 0 512 512" style="enable-background:new 0 0 512 512;" xml:space="preserve">
<path style="fill:#61DE56;" d="M437.02,74.98C388.667,26.628,324.38,0,256,0C187.619,0,123.332,26.628,74.98,74.98
	C26.629,123.331,0,187.619,0,256c0,68.38,26.629,132.667,74.98,181.019C123.332,485.371,187.619,512,256,512
	c68.379,0,132.666-26.629,181.02-74.981C485.371,388.667,512,324.38,512,256C512,187.619,485.371,123.331,437.02,74.98z"/>
<path style="fill:#13C37B;" d="M437.02,74.981C388.666,26.629,324.379,0,256,0h-0.001v512H256c68.38,0,132.667-26.628,181.02-74.979
	C485.371,388.668,512,324.381,512,256C512,187.62,485.371,123.333,437.02,74.981z"/>
<path style="fill:#F2F2F2;" d="M392.033,243.01L199.232,131.697c-4.642-2.68-10.359-2.68-15,0s-7.5,7.631-7.5,12.99v222.621
	c0,5.359,2.859,10.311,7.5,12.99c2.32,1.34,4.91,2.01,7.5,2.01s5.18-0.67,7.5-2.01L392.033,268.99c4.641-2.679,7.5-7.631,7.5-12.99
	C399.533,250.641,396.674,245.69,392.033,243.01z"/>
<path style="fill:#D9D9D9;" d="M392.033,243.01l-136.032-78.537v183.052l136.032-78.534c4.641-2.679,7.5-7.631,7.5-12.99
	C399.533,250.641,396.674,245.69,392.033,243.01z"/>
<g>
</g>
<g>
</g>
<g>
</g>
<g>
</g>
<g>
</g>
<g>
</g>
<g>
</g>
<g>
</g>
<g>
</g>
<g>
</g>
<g>
</g>
<g>
</g>
<g>
</g>
<g>
</g>
<g>
</g>
</svg>
